<svg width="22" height="20" viewBox="0 0 22 20" fill="none" xmlns="http://www.w3.org/2000/svg">
<path d="M10.7512 0C4.88076 0 0.126953 4.48 0.126953 10C0.126953 15.52 4.88076 20 10.7512 20C16.6323 20 21.3968 15.52 21.3968 10C21.3968 4.48 16.6323 0 10.7512 0ZM10.7619 18C6.06124 18 2.25394 14.42 2.25394 10C2.25394 5.58 6.06124 2 10.7619 2C15.4625 2 19.2698 5.58 19.2698 10C19.2698 14.42 15.4625 18 10.7619 18Z" fill="#7BACFB"/>
<path d="M11.2936 5H9.69838V11L15.2817 14.15L16.0793 12.92L11.2936 10.25V5Z" fill="#7BACFB"/>
</svg>
