<svg width="26" height="25" viewBox="0 0 26 25" fill="none" xmlns="http://www.w3.org/2000/svg">
<path d="M13.8958 5.03883C13.3096 4.45269 13.7248 3.4505 14.5537 3.4505L20.6813 3.4505C21.1951 3.4505 21.6117 3.86706 21.6117 4.38092V10.5085C21.6117 11.3374 20.6095 11.7525 20.0233 11.1664L18.2754 9.41844L15.6438 6.78681L13.8958 5.03883Z" fill="#7BACFB"/>
<path d="M11.8887 10.5418L14.5204 13.1735L18.2754 9.41844L15.6438 6.78681L11.8887 10.5418Z" fill="#7BACFB"/>
<path d="M11.1664 19.9612C11.7526 20.5473 11.3374 21.5495 10.5085 21.5495L4.38094 21.5495C3.86709 21.5495 3.45052 21.1329 3.45052 20.6191V14.4915C3.45052 13.6626 4.45272 13.2475 5.03885 13.8336L6.7868 15.5816L9.41843 18.2132L11.1664 19.9612Z" fill="#7BACFB"/>
<path d="M13.1735 14.4582L10.5418 11.8265L6.7868 15.5816L9.41843 18.2132L13.1735 14.4582Z" fill="#7BACFB"/>
</svg>
