<svg width="31" height="31" viewBox="0 0 31 31" fill="none" xmlns="http://www.w3.org/2000/svg">
<path d="M14.9386 0.0234108C13.863 0.278063 13.0513 0.799494 12.5959 1.53313C12.3848 1.87873 12.134 2.58206 12.134 2.83671C12.134 2.98222 12.0878 3.0186 11.7578 3.14593C9.46133 3.97658 7.56737 5.58937 6.43232 7.66903C5.7988 8.83922 5.50183 9.90026 5.40285 11.3554C5.29726 12.8651 5.21147 13.4775 4.9739 14.3264C4.37338 16.5273 2.98096 18.9828 0.922021 21.4809C0.222511 22.3297 0.050933 22.6814 0.00473892 23.3726C-0.0612526 24.4761 0.565667 25.434 1.65453 25.8766C2.27485 26.1252 4.28759 26.5254 6.06276 26.7558C8.84761 27.1135 11.7644 27.2772 15.4996 27.2772C19.2347 27.2772 22.1515 27.1135 24.9363 26.7558C26.7181 26.5254 28.7243 26.1252 29.3446 25.8706C30.4334 25.434 31.067 24.4639 30.9944 23.3483C30.9482 22.6996 30.77 22.3176 30.1761 21.6021C28.0314 19.001 26.5861 16.4606 25.9922 14.2293C25.781 13.4411 25.6952 12.8227 25.5963 11.3554C25.4973 9.90026 25.2003 8.83922 24.5668 7.66903C23.4515 5.63181 21.5708 4.00689 19.3931 3.2005C18.9113 3.02467 18.8651 2.98829 18.8651 2.83671C18.8651 2.58206 18.6144 1.87873 18.4032 1.53313C18.027 0.932882 17.3341 0.40539 16.5884 0.162865C16.1991 0.0416012 15.229 -0.0432835 14.9386 0.0234108Z" fill="#FDFCFF"/>
<path d="M11.2764 28.4899C11.2764 28.696 11.7383 29.2841 12.2662 29.7692C12.748 30.2057 12.9394 30.3331 13.4607 30.5635C14.2592 30.9151 14.6485 31 15.4998 31C16.3511 31 16.7405 30.9151 17.5456 30.5635C18.0801 30.327 18.2517 30.2118 18.7664 29.7328C19.1294 29.3993 19.4395 29.0477 19.5583 28.8355C19.6639 28.6475 19.7365 28.4838 19.7233 28.4717C19.7035 28.4595 19.1096 28.4717 18.4035 28.502C17.044 28.5566 11.5733 28.5141 11.3886 28.4474C11.316 28.4232 11.2764 28.4414 11.2764 28.4899Z" fill="#FDFCFF"/>
</svg>
