<svg width="15" height="14" viewBox="0 0 15 14" fill="none" xmlns="http://www.w3.org/2000/svg">
<path d="M0 1.5C0 0.671573 0.671573 0 1.5 0H9.5H10C10.5523 0 11 0.447715 11 1C11 1.55228 10.5523 2 10 2H9.5H3.5C2.67157 2 2 2.67157 2 3.5V6.75V11.5C2 11.7761 2.22386 12 2.5 12H3.5H9.5H10C10.5523 12 11 12.4477 11 13C11 13.5523 10.5523 14 10 14H9.5H1.5C0.671573 14 0 13.3284 0 12.5V1.5Z" fill="#DD3730"/>
<path d="M15 7L11.25 10.4641V3.5359L15 7Z" fill="#DD3730"/>
<rect x="4" y="6" width="8" height="2" fill="#DD3730"/>
</svg>
