<svg width="20" height="20" viewBox="0 0 20 20" fill="none" xmlns="http://www.w3.org/2000/svg">
<path d="M18.7247 1.72423C21.1804 4.17994 19.3579 7.08711 19.2254 7.29033C19.2201 7.29852 19.2145 7.3051 19.2076 7.31201L13.8099 12.7097C13.7497 12.7699 13.6522 12.7699 13.592 12.7097L7.29027 6.40799C7.23012 6.34783 7.23012 6.25029 7.29027 6.19013L12.688 0.79242C12.6949 0.78551 12.7015 0.779911 12.7097 0.774576C12.9129 0.642149 15.8201 -1.18039 18.2758 1.27533C20.8218 3.82139 16.1786 -0.821831 18.7247 1.72423Z" fill="#A7C8FF"/>
<path fill-rule="evenodd" clip-rule="evenodd" d="M0.774576 12.7097C0.642149 12.9129 -1.18039 15.8201 1.27533 18.2758L1.72423 18.7247C4.17994 21.1804 7.08712 19.3579 7.29033 19.2254C7.29852 19.2201 7.3051 19.2145 7.31201 19.2076L12.7097 13.8099C12.7699 13.7497 12.7699 13.6522 12.7097 13.592L6.40799 7.29028C6.34783 7.23012 6.25029 7.23012 6.19014 7.29028L0.79242 12.688C0.785511 12.6949 0.779911 12.7015 0.774576 12.7097ZM11.1876 13.7528L6.24726 8.81244C6.1871 8.75228 6.08956 8.75228 6.0294 8.81244L1.78376 13.0581C1.77685 13.065 1.77144 13.0713 1.76612 13.0795C1.65098 13.257 0.228678 15.5462 2.16366 17.4812L2.51881 17.8363C4.45379 19.7713 6.74304 18.349 6.92052 18.2339C6.92872 18.2286 6.93501 18.2232 6.94192 18.2162L11.1876 13.9706C11.2477 13.9104 11.2477 13.8129 11.1876 13.7528Z" fill="#A7C8FF"/>
</svg>
