<svg width="20" height="20" viewBox="0 0 20 20" fill="none" xmlns="http://www.w3.org/2000/svg">
<path fill-rule="evenodd" clip-rule="evenodd" d="M0 1.33333C0 0.596954 0.596954 0 1.33333 0H18.6667C19.403 0 20 0.596954 20 1.33333V18.6667C20 19.403 19.403 20 18.6667 20H1.33333C0.596954 20 0 19.403 0 18.6667V1.33333ZM17 1.66667H3C2.26362 1.66667 1.66667 2.26362 1.66667 3H15.6667C16.403 3 17 3.59695 17 4.33333V18.3333C17.7364 18.3333 18.3333 17.7364 18.3333 17V3C18.3333 2.26362 17.7364 1.66667 17 1.66667ZM3.00001 6.21566C3.00001 5.75575 3.37718 5.38292 3.83709 5.38292C4.297 5.38292 4.67418 5.75575 4.67418 6.21566C4.67418 6.67557 4.297 7.0484 3.83709 7.0484C3.37718 7.0484 3.00001 6.67557 3.00001 6.21566ZM3.83709 9.1674C3.37718 9.1674 3.00001 9.54023 3.00001 10.0001C3.00001 10.4601 3.37718 10.8329 3.83709 10.8329C4.297 10.8329 4.67418 10.4601 4.67418 10.0001C4.67418 9.54023 4.297 9.1674 3.83709 9.1674ZM3.00001 13.7843C3.00001 13.3244 3.37718 12.9516 3.83709 12.9516C4.297 12.9516 4.67418 13.3244 4.67418 13.7843C4.67418 14.2442 4.297 14.6171 3.83709 14.6171C3.37718 14.6171 3.00001 14.2442 3.00001 13.7843ZM8.56269 14.6171H14.1673C14.6272 14.6171 15 14.2442 15 13.7843C15 13.3244 14.6272 12.9516 14.1673 12.9516H8.56269C8.10278 12.9516 7.72995 13.3244 7.72995 13.7843C7.72995 14.2442 8.10278 14.6171 8.56269 14.6171ZM14.1673 10.8329H8.56269C8.10278 10.8329 7.72995 10.4601 7.72995 10.0001C7.72995 9.54023 8.10278 9.1674 8.56269 9.1674H14.1673C14.6272 9.1674 15 9.54023 15 10.0001C15 10.4601 14.6272 10.8329 14.1673 10.8329ZM8.56269 7.0484H14.1673C14.6272 7.0484 15 6.67557 15 6.21566C15 5.75575 14.6272 5.38292 14.1673 5.38292H8.56269C8.10278 5.38292 7.72995 5.75575 7.72995 6.21566C7.72995 6.67557 8.10278 7.0484 8.56269 7.0484Z" fill="#A7C8FF"/>
</svg>
