<svg width="15" height="16" viewBox="0 0 15 16" fill="none" xmlns="http://www.w3.org/2000/svg">
<path d="M0.140504 5.12404C0.0658977 4.52718 0.531284 4 1.13278 4H13.8672C14.4687 4 14.9341 4.52718 14.8595 5.12403L13.6095 15.124C13.5469 15.6245 13.1215 16 12.6172 16H2.38278C1.87846 16 1.45306 15.6245 1.3905 15.124L0.140504 5.12404Z" fill="#245EA7"/>
<path d="M0 2.25C0 1.83579 0.197521 1.5 0.441176 1.5H14.5588C14.8025 1.5 15 1.83579 15 2.25C15 2.66421 14.8025 3 14.5588 3H0.441177C0.197522 3 0 2.66421 0 2.25Z" fill="#245EA7"/>
<path d="M6.17647 1.5C6.17647 0.671573 6.57151 0 7.05882 0H7.94118C8.42849 0 8.82353 0.671573 8.82353 1.5C8.82353 2.32843 8.42849 3 7.94118 3H7.05882C6.57151 3 6.17647 2.32843 6.17647 1.5Z" fill="#245EA7"/>
</svg>
