<svg width="20" height="20" viewBox="0 0 20 20" fill="none" xmlns="http://www.w3.org/2000/svg">
<path fill-rule="evenodd" clip-rule="evenodd" d="M0.176065 0.126697C-0.215933 0.53346 0.0080659 1.11455 1.24006 3.11931L2.50006 5.15313V11.9809C2.50006 18.4601 2.52806 18.8669 3.06006 19.4189C3.59205 19.9709 3.98405 20 9.22003 20C14.456 20 14.848 19.9709 15.38 19.4189C15.912 18.8669 15.94 18.4601 15.94 10.2667V1.69564H16.584C18.012 1.69564 18.32 2.27673 18.46 5.53084L18.4608 5.54822C18.6 8.49452 18.6014 8.52346 19.3 8.52346H20V1.98619L19.076 1.05644L18.18 0.0976429L9.27603 0.0104795C4.37605 -0.018575 0.288065 0.0104787 0.176065 0.126697ZM7.94022 3.72779H14.3224C14.7093 3.72779 15.0229 4.04141 15.0229 4.42827C15.0229 4.81514 14.7093 5.12875 14.3224 5.12875H7.94022C7.55336 5.12875 7.23974 4.81514 7.23974 4.42827C7.23974 4.04141 7.55336 3.72779 7.94022 3.72779ZM14.3224 7.65654H11.3817C10.9948 7.65654 10.6812 7.97015 10.6812 8.35702C10.6812 8.74389 10.9948 9.0575 11.3817 9.0575H14.3224C14.7093 9.0575 15.0229 8.74389 15.0229 8.35702C15.0229 7.97015 14.7093 7.65654 14.3224 7.65654ZM7.94022 11.5853H14.3224C14.7093 11.5853 15.0229 11.8989 15.0229 12.2858C15.0229 12.6726 14.7093 12.9862 14.3224 12.9862H7.94022C7.55336 12.9862 7.23974 12.6726 7.23974 12.2858C7.23974 11.8989 7.55336 11.5853 7.94022 11.5853ZM14.3224 15.514H11.3817C10.9948 15.514 10.6812 15.8276 10.6812 16.2145C10.6812 16.6014 10.9948 16.915 11.3817 16.915H14.3224C14.7093 16.915 15.0229 16.6014 15.0229 16.2145C15.0229 15.8276 14.7093 15.514 14.3224 15.514Z" fill="#A7C8FF"/>
</svg>
